<svg xmlns="http://www.w3.org/2000/svg" viewBox="0 0 524 492" width="838" font-family="Arial, sans-serif">
<rect x="0" y="0" width="524" height="492" fill="#ffffff"/>
<text x="46" y="18" font-size="13" font-weight="bold">FTS · Modulo BAS · Cajon C9 · 48-22-8420 · vista superior (mm)</text>
<rect x="46" y="46" width="432" height="330" fill="#2b2b2b" stroke="#000" stroke-width="3"/>
<line x1="46" y1="32" x2="478" y2="32" stroke="#333" stroke-width="1"/>
<line x1="46" y1="26" x2="46" y2="38" stroke="#333"/><line x1="478" y1="26" x2="478" y2="38" stroke="#333"/>
<text x="262.0" y="28" font-size="11" text-anchor="middle">432 mm</text>
<line x1="32" y1="46" x2="32" y2="376" stroke="#333"/>
<line x1="26" y1="46" x2="38" y2="46" stroke="#333"/><line x1="26" y1="376" x2="38" y2="376" stroke="#333"/>
<text x="28" y="211.0" font-size="11" text-anchor="middle" transform="rotate(-90 28 211.0)">330 mm</text>
<text x="262.0" y="390" font-size="10" text-anchor="middle" fill="#555">FRENTE DEL CAJON</text>
<rect x="52" y="52" width="130" height="300" rx="4" fill="#D8C8F0" stroke="#111" stroke-width="1.2"/>
<text x="117.0" y="200.14285714285714" font-size="9.3" text-anchor="middle" font-weight="bold">FTS-BAS-01-C9-01 R</text>
<text x="117.0" y="211.28571428571428" font-size="7.9" text-anchor="middle">Mini esmeriladora 4-1/2 ala</text>
<text x="54" y="350" font-size="6.5" fill="#333">300x130x105</text>
<rect x="194" y="52" width="202" height="170" rx="4" fill="#F4A6A6" stroke="#111" stroke-width="1.2"/>
<text x="295.0" y="134.8" font-size="11.0" text-anchor="middle" font-weight="bold">FTS-BAS-01-C9-02</text>
<text x="295.0" y="148.0" font-size="9.3" text-anchor="middle">Rotomartillo M18 1/2 3602-20 (sin ba</text>
<text x="196" y="220" font-size="7.7" fill="#333">202x170x75</text>
<rect x="194" y="234" width="202" height="122" rx="4" fill="#F4A6A6" stroke="#111" stroke-width="1.2"/>
<text x="295.0" y="292.8" font-size="11.0" text-anchor="middle" font-weight="bold">FTS-BAS-01-C9-03</text>
<text x="295.0" y="306.0" font-size="9.3" text-anchor="middle">Llave de impacto M18 FUEL 3/8 2854-2</text>
<text x="196" y="354" font-size="7.7" fill="#333">202x122x70</text>
<text x="46" y="408" font-size="11" fill="#000">Modulo BASE · caja 48-22-8420 · cajon C9 · alto interior 190 mm, util 180 mm</text>
<text x="46" y="422" font-size="11" fill="#000">Ocupacion en planta 68.7 % · peso 4.03 kg de 15 kg</text>
<text x="46" y="436" font-size="11" fill="#000">Medidas no validadas: confirmar con vernier antes de imprimir</text>
</svg>