<svg xmlns="http://www.w3.org/2000/svg" viewBox="0 0 508 484" width="813" font-family="Arial, sans-serif">
<rect x="0" y="0" width="508" height="484" fill="#ffffff"/>
<text x="46" y="18" font-size="13" font-weight="bold">FTS · Modulo SOL · Cajon C5 · 48-22-8444 · vista superior (mm)</text>
<rect x="46" y="46" width="416" height="322" fill="#2b2b2b" stroke="#000" stroke-width="3"/>
<line x1="46" y1="32" x2="462" y2="32" stroke="#333" stroke-width="1"/>
<line x1="46" y1="26" x2="46" y2="38" stroke="#333"/><line x1="462" y1="26" x2="462" y2="38" stroke="#333"/>
<text x="254.0" y="28" font-size="11" text-anchor="middle">416 mm</text>
<line x1="32" y1="46" x2="32" y2="368" stroke="#333"/>
<line x1="26" y1="46" x2="38" y2="46" stroke="#333"/><line x1="26" y1="368" x2="38" y2="368" stroke="#333"/>
<text x="28" y="207.0" font-size="11" text-anchor="middle" transform="rotate(-90 28 207.0)">322 mm</text>
<text x="254.0" y="382" font-size="10" text-anchor="middle" fill="#555">FRENTE DEL CAJON</text>
<rect x="52" y="52" width="400" height="110" rx="4" fill="#D8C8F0" stroke="#111" stroke-width="1.2"/>
<text x="252.0" y="104.8" font-size="11.0" text-anchor="middle" font-weight="bold">FTS-SOL-01-C5-01</text>
<text x="252.0" y="118.0" font-size="9.3" text-anchor="middle">Arco con segueta 12 in Stanley 15-555</text>
<text x="54" y="160" font-size="7.7" fill="#333">400x110x25</text>
<rect x="52" y="174" width="60" height="178" rx="4" fill="#F6C2A8" stroke="#111" stroke-width="1.2"/>
<text x="82.0" y="261.8" font-size="6.0" text-anchor="middle" font-weight="bold">FTS-SOL-01-C5-02 R</text>
<text x="82.0" y="269.0" font-size="5.1" text-anchor="middle">Pinza de presion 7 i</text>
<text x="54" y="350" font-size="5.0" fill="#333">178x60x25</text>
<rect x="124" y="174" width="70" height="152" rx="4" fill="#F6C2A8" stroke="#111" stroke-width="1.2"/>
<text x="159.0" y="248.8" font-size="6.0" text-anchor="middle" font-weight="bold">FTS-SOL-01-C5-03 R</text>
<text x="159.0" y="256.0" font-size="5.1" text-anchor="middle">Pinza de presion C 6 in</text>
<text x="126" y="324" font-size="5.0" fill="#333">152x70x22</text>
<rect x="206" y="174" width="250" height="60" rx="4" fill="#F6C2A8" stroke="#111" stroke-width="1.2"/>
<text x="331.0" y="201.8" font-size="11.0" text-anchor="middle" font-weight="bold">FTS-SOL-01-C5-04</text>
<text x="331.0" y="215.0" font-size="9.3" text-anchor="middle">3 limas 6 in (redonda, media cana, triangular</text>
<text x="208" y="232" font-size="7.7" fill="#333">250x60x15</text>
<text x="46" y="400" font-size="11" fill="#000">Modulo SOL · caja 48-22-8444 · cajon C5 · alto interior 61 mm, util 51 mm</text>
<text x="46" y="414" font-size="11" fill="#000">Ocupacion en planta 60.0 % · peso 1.45 kg de 11 kg</text>
<text x="46" y="428" font-size="11" fill="#000">Medidas no validadas: confirmar con vernier antes de imprimir</text>
</svg>